<svg width="20" height="20" viewBox="0 0 20 20" fill="none" xmlns="http://www.w3.org/2000/svg">
<g clip-path="url(#clip0_27608_44850)">
<path d="M10.2393 8.61572C11.5379 8.61572 12.5906 9.6687 12.5908 10.9673C12.5908 12.2661 11.538 13.3188 10.2393 13.3188C9.02198 13.3186 8.02098 12.394 7.90039 11.2085L7.8877 10.9673C7.88791 9.66883 8.9408 8.61594 10.2393 8.61572Z" fill="#04A5FF" stroke="#04A5FF"/>
<path d="M3.42558 15.5338C3.28253 15.3383 3.00802 15.2958 2.81247 15.4389C2.61695 15.5819 2.57443 15.8564 2.7175 16.052L3.42558 15.5338ZM15.063 15.7929C15.063 17.0851 16.1105 18.1327 17.4027 18.1327C18.695 18.1327 19.7425 17.0851 19.7425 15.7929C19.7425 14.5007 18.695 13.4531 17.4027 13.4531C16.1105 13.4531 15.063 14.5007 15.063 15.7929ZM2.7175 16.052C5.00836 19.1828 8.16067 20.228 11.0457 19.9588C13.9055 19.6918 16.5281 18.1294 17.7802 16.0166L17.0253 15.5693C15.9376 17.4048 13.5881 18.8402 10.9641 19.0851C8.36523 19.3277 5.52183 18.3987 3.42558 15.5338L2.7175 16.052Z" fill="white"/>
<path d="M9.29696 2.84903C9.53647 2.81247 9.70101 2.58867 9.66448 2.34916C9.62793 2.10965 9.40413 1.94511 9.16462 1.98164L9.29696 2.84903ZM3.26844 12.3313C2.08222 11.8187 0.705084 12.3648 0.192524 13.5511C-0.320036 14.7373 0.2261 16.1144 1.41234 16.627C2.59856 17.1396 3.9757 16.5934 4.48826 15.4072C5.00082 14.221 4.45468 12.8438 3.26844 12.3313ZM9.16462 1.98164C5.42143 2.55281 3.09983 4.68099 1.97834 7.1991C0.866529 9.69548 0.935495 12.5726 1.94511 14.6694L2.73567 14.2888C1.84421 12.4373 1.76694 9.83049 2.77986 7.55607C3.78313 5.30341 5.85727 3.37387 9.29696 2.84903L9.16462 1.98164Z" fill="white"/>
<path d="M17.7265 14.3207C17.6398 14.547 17.753 14.8007 17.9793 14.8873C18.2056 14.974 18.4592 14.8608 18.5459 14.6346L17.7265 14.3207ZM12.1652 4.25748C13.2242 3.51696 13.4824 2.05816 12.7418 0.999144C12.0013 -0.0598441 10.5425 -0.318025 9.48351 0.422503C8.42452 1.16302 8.16636 2.62182 8.90687 3.68083C9.64739 4.73982 11.1062 4.99799 12.1652 4.25748ZM18.5459 14.6346C19.9143 11.0613 19.2742 7.94372 17.632 5.68323C16.0017 3.43916 13.3956 2.05632 10.8509 1.90207L10.7978 2.77791C13.0789 2.91613 15.4449 4.16555 16.9221 6.19891C18.3874 8.21584 18.9903 11.0208 17.7265 14.3207L18.5459 14.6346Z" fill="white"/>
</g>
<defs>
<clipPath id="clip0_27608_44850">
<rect width="20" height="20" fill="white"/>
</clipPath>
</defs>
</svg>
